<svg width="872" height="318" viewBox="0 0 872 318" fill="none" xmlns="http://www.w3.org/2000/svg">
<rect x="0.5" y="0.5" width="871" height="317" stroke="white"/>
<rect width="872" height="58" fill="#757575"/>
<path d="M123.938 169.5L82.4375 146.5C80.3542 145.333 78.9583 144.292 78.25 143.375C77.5833 142.458 77.25 141.292 77.25 139.875C77.25 138.083 77.8958 136.542 79.1875 135.25C80.4792 133.958 82 133.312 83.75 133.312C84.8333 133.312 86.5 133.917 88.75 135.125L150.562 169.5L88.75 203.875C86.5 205.125 84.8333 205.75 83.75 205.75C82 205.75 80.4792 205.104 79.1875 203.812C77.8958 202.521 77.25 200.958 77.25 199.125C77.25 197.708 77.5833 196.542 78.25 195.625C78.9583 194.708 80.3542 193.667 82.4375 192.5L123.938 169.5ZM222.75 244.438H152.375C149.292 244.438 147.104 243.854 145.812 242.688C144.479 241.521 143.812 239.979 143.812 238.062C143.812 236.146 144.479 234.583 145.812 233.375C147.104 232.208 149.292 231.625 152.375 231.625H222.75C225.792 231.625 227.958 232.208 229.25 233.375C230.583 234.583 231.25 236.146 231.25 238.062C231.25 239.938 230.604 241.458 229.312 242.625C228.021 243.833 225.833 244.438 222.75 244.438Z" fill="white"/>
<rect x="30" y="16" width="25" height="25" rx="12.5" fill="white"/>
<rect x="72" y="16" width="24" height="25" rx="12" fill="white"/>
<rect x="113" y="16" width="25" height="25" rx="12.5" fill="white"/>
<path d="M446.744 209.568V220H394.712V128.288H407.064V209.568H446.744ZM483.886 155.168V220H472.494V155.168H483.886ZM486.318 134.816C486.318 135.925 486.083 136.971 485.614 137.952C485.187 138.891 484.59 139.744 483.822 140.512C483.097 141.237 482.222 141.813 481.198 142.24C480.217 142.667 479.171 142.88 478.062 142.88C476.953 142.88 475.907 142.667 474.926 142.24C473.987 141.813 473.155 141.237 472.43 140.512C471.705 139.744 471.129 138.891 470.702 137.952C470.275 136.971 470.062 135.925 470.062 134.816C470.062 133.707 470.275 132.661 470.702 131.68C471.129 130.656 471.705 129.781 472.43 129.056C473.155 128.288 473.987 127.691 474.926 127.264C475.907 126.837 476.953 126.624 478.062 126.624C479.171 126.624 480.217 126.837 481.198 127.264C482.222 127.691 483.097 128.288 483.822 129.056C484.59 129.781 485.187 130.656 485.614 131.68C486.083 132.661 486.318 133.707 486.318 134.816ZM527.436 164.576C528.844 162.997 530.337 161.568 531.916 160.288C533.495 159.008 535.159 157.92 536.908 157.024C538.7 156.085 540.577 155.381 542.54 154.912C544.545 154.4 546.7 154.144 549.004 154.144C552.545 154.144 555.66 154.741 558.348 155.936C561.079 157.088 563.34 158.752 565.132 160.928C566.967 163.061 568.353 165.643 569.292 168.672C570.231 171.701 570.7 175.051 570.7 178.72V220H559.244V178.72C559.244 173.813 558.113 170.016 555.852 167.328C553.633 164.597 550.241 163.232 545.676 163.232C542.305 163.232 539.148 164.043 536.204 165.664C533.303 167.285 530.615 169.483 528.14 172.256V220H516.684V155.168H523.532C525.153 155.168 526.156 155.957 526.54 157.536L527.436 164.576ZM655.451 155.168V220H648.667C647.046 220 646.022 219.211 645.595 217.632L644.699 210.656C641.883 213.771 638.726 216.288 635.227 218.208C631.728 220.085 627.718 221.024 623.195 221.024C619.654 221.024 616.518 220.448 613.787 219.296C611.099 218.101 608.838 216.437 607.003 214.304C605.168 212.171 603.782 209.589 602.843 206.56C601.947 203.531 601.499 200.181 601.499 196.512V155.168H612.891V196.512C612.891 201.419 614 205.216 616.219 207.904C618.48 210.592 621.915 211.936 626.523 211.936C629.894 211.936 633.03 211.147 635.931 209.568C638.875 207.947 641.584 205.728 644.059 202.912V155.168H655.451ZM740.842 220H729.898C728.959 220 728.213 219.765 727.658 219.296C727.146 218.784 726.719 218.229 726.378 217.632L710.058 192.224C709.887 192.821 709.695 193.419 709.482 194.016C709.311 194.571 709.055 195.083 708.714 195.552L693.61 217.632C693.183 218.229 692.714 218.784 692.202 219.296C691.733 219.765 691.071 220 690.218 220H680.042L702.762 186.72L680.938 155.168H691.882C692.821 155.168 693.503 155.317 693.93 155.616C694.357 155.915 694.741 156.341 695.082 156.896L711.018 181.216C711.359 179.979 711.893 178.784 712.618 177.632L726.57 157.152C726.954 156.555 727.359 156.085 727.786 155.744C728.255 155.36 728.81 155.168 729.45 155.168H739.946L718.122 186.144L740.842 220Z" fill="white"/>
</svg>
