<svg width="712" height="150" xmlns="http://www.w3.org/2000/svg" xmlns:xlink="http://www.w3.org/1999/xlink" xml:space="preserve" overflow="hidden"><defs><clipPath id="clip0"><rect x="140" y="268" width="712" height="150"/></clipPath><clipPath id="clip1"><rect x="140" y="268" width="712" height="150"/></clipPath></defs><g clip-path="url(#clip0)" transform="translate(-140 -268)"><g clip-path="url(#clip1)"><path d="M-540.567 189.136-559.079 189.136-577.129 120.428-595.378 189.136-614.298 189.136-639.116 99.8297-622.326 99.8297-604.429 170.866-584.891 99.8297-567.932 99.8297-549.566 171.288-532.568 99.8297-516.356 99.8297Z" fill="#FFFFFF" fill-rule="nonzero" fill-opacity="1" transform="matrix(1.00133 0 0 1 976.228 198.52)"/><path d="M-492.625 106.363C-492.625 108.777-493.515 110.789-495.293 112.398-497.03 114.008-499.148 114.813-501.647 114.813-504.146 114.813-506.264 114.008-508 112.398-509.737 110.789-510.605 108.777-510.605 106.363-510.605 103.906-509.737 101.852-508 100.2-506.221 98.5477-504.103 97.7217-501.647 97.7217-499.063 97.7217-496.924 98.569-495.23 100.263-493.493 101.957-492.625 103.991-492.625 106.362ZM-509.371 189.132-509.371 124.773-494.367 124.773-494.367 189.132Z" fill="#FFFFFF" fill-rule="nonzero" fill-opacity="1" transform="matrix(1.00133 0 0 1 976.228 198.52)"/><path d="M-436.62 189.136-436.62 153.302C-436.62 143.913-439.533 135.814-448.991 135.814-458.4 135.814-464.366 144.286-464.366 152.857L-464.366 189.134-479.043 189.134-479.043 124.775-464.366 124.775-464.366 133.878-464.112 133.878C-459.241 126.337-452.21 123.69-443.019 123.69-436.115 123.69-430.778 125.389-427.008 129.794-423.196 134.199-421.523 140.891-421.523 149.871L-421.523 189.133Z" fill="#FFFFFF" fill-rule="nonzero" fill-opacity="1" transform="matrix(1.00133 0 0 1 976.228 198.52)"/><path d="M-362.922 189.136-362.922 180.851-363.176 180.851C-367.835 188.687-377.346 190.493-383.977 190.493-403.684 190.493-410.915 175.185-410.915 158.894-410.915 148.093-408.226 139.452-402.846 132.972-397.425 126.449-390.182 123.625-381.117 123.625-367.007 123.625-363.176 131.476-363.176 131.476L-362.922 131.476-362.922 94.2299-347.698 94.2299-347.698 189.136ZM-362.795 152.462C-362.795 144.687-367.791 135.854-378.336 135.854-390.398 135.854-395.086 146.351-395.086 158.45-395.086 169.013-390.663 178.599-379.176 178.758-367.912 178.758-362.886 168.023-362.795 159.149Z" fill="#FFFFFF" fill-rule="nonzero" fill-opacity="1" transform="matrix(1.00133 0 0 1 976.228 198.52)"/><path d="M-270.896 156.671C-270.896 178.964-284.22 191.04-304.228 191.04-325.986 191.04-337.138 178.015-337.138 158.068-337.138 135.249-323.775 123.379-302.64 123.379-283.275 123.379-270.896 135.758-270.896 156.671ZM-286.526 157.179C-286.526 147.261-290.042 136.236-303.466 136.236-316.342 136.236-321.344 145.818-321.344 157.561-321.344 170.317-315.336 178.431-303.558 178.431-290.94 178.431-286.618 168.747-286.526 157.179Z" fill="#FFFFFF" fill-rule="nonzero" fill-opacity="1" transform="matrix(1.00133 0 0 1 976.228 198.52)"/><path d="M-190.366 189.136-206.925 189.136-219.582 142.556-233.161 189.136-249.233 189.136-267.956 124.973-252.244 124.973-240.017 174.82-225.726 124.973-210.988 124.973-198.246 174.691-186.327 124.973-171.926 124.973Z" fill="#FFFFFF" fill-rule="nonzero" fill-opacity="1" transform="matrix(1.00133 0 0 1 976.228 198.52)"/><path d="M-124.795 171.22C-124.795 185.549-137.788 191.134-150.814 191.134-159.297 191.134-167.744 187.866-167.744 187.866L-167.744 172.625C-167.744 172.625-160.401 179.024-150.145 179.103-143.114 179.103-139.947 176.886-139.947 172.665-139.773 169.278-141.835 167.41-144.3 166.01-145.994 164.994-148.641 163.744-152.242 162.262-156.477 160.44-159.633 158.683-161.708 156.988-163.741 155.294-165.266 153.303-166.283 151.016-167.257 148.729-167.976 146.215-167.976 143.166-167.976 131.595-158.327 123.42-142.902 123.42-132.707 123.42-128.289 125.92-128.289 125.92L-128.289 140.399C-128.289 140.399-135.534 135.392-143.062 135.346-148.456 135.346-152.535 137.31-152.606 141.754-152.644 147.483-145.629 150.275-141.441 151.97-135.342 154.426-130.878 157.049-128.379 160.056-125.88 163.064-124.795 166.092-124.795 171.221Z" fill="#FFFFFF" fill-rule="nonzero" fill-opacity="1" transform="matrix(1.00133 0 0 1 976.228 198.52)"/><path d="M-65.7623 97.2264-65.7623 189.136-81.1156 189.136-81.1156 115.822C-81.1156 115.822-86.3797 120.685-99.891 124.208L-99.891 111.125C-79.8102 103.699-72.602 97.2274-72.602 97.2274Z" fill="#FFFFFF" fill-rule="nonzero" fill-opacity="1" transform="matrix(1.00133 0 0 1 976.228 198.52)"/><path d="M-834.592 69.4796-763.493 69.4796-763.493 140.578-834.592 140.578Z" fill="#FFFFFF" fill-rule="nonzero" fill-opacity="1" transform="matrix(1.00133 0 0 1 976.228 198.52)"/><path d="M-755.693 69.4796-684.595 69.4796-684.595 140.578-755.693 140.578Z" fill="#FFFFFF" fill-rule="nonzero" fill-opacity="1" transform="matrix(1.00133 0 0 1 976.228 198.52)"/><path d="M-834.592 148.384-763.493 148.384-763.493 219.483-834.592 219.483Z" fill="#FFFFFF" fill-rule="nonzero" fill-opacity="1" transform="matrix(1.00133 0 0 1 976.228 198.52)"/><path d="M-755.693 148.384-684.595 148.384-684.595 219.483-755.693 219.483Z" fill="#FFFFFF" fill-rule="nonzero" fill-opacity="1" transform="matrix(1.00133 0 0 1 976.228 198.52)"/><path d="M-20.4226 97.2264-20.4226 189.136-35.7759 189.136-35.7759 115.822C-35.7759 115.822-41.04 120.685-54.5512 124.208L-54.5512 111.125C-34.4705 103.699-27.2622 97.2274-27.2622 97.2274Z" fill="#FFFFFF" fill-rule="nonzero" fill-opacity="1" transform="matrix(1.00133 0 0 1 976.228 198.52)"/></g></g></svg>